<svg width="547" height="656" viewBox="0 0 547 656" fill="none" xmlns="http://www.w3.org/2000/svg">
<ellipse cx="174" cy="555" rx="174" ry="12" fill="black" fill-opacity="0.5"/>
<path d="M182.686 414.091C181.377 414.284 179.837 414.386 179.525 415.945C179.284 417.153 179.375 418.396 180.099 419.444C181.336 421.234 183.174 422.279 185.388 421.91C187.367 421.581 190.086 419.787 190.086 417.559C190.086 416.303 189.181 415.039 188.433 414.099C187.631 413.092 186.938 412.032 185.928 411.208C184.566 410.097 183.465 409.988 182.24 411.298C181.57 412.015 180.936 412.993 180.643 413.932C180.498 414.395 180.605 414.766 180.605 415.23C180.605 415.848 180.49 414.936 180.605 414.63" stroke="#00ADB5" stroke-opacity="0.5" stroke-linecap="round" stroke-linejoin="round"/>
<path d="M189.469 417.63C190.583 418.619 191.527 419.513 193.497 419.561C194.876 419.595 196.254 419.251 197.546 418.88C198.472 418.615 201.438 417.21 199.034 417.097" stroke="#00ADB5" stroke-opacity="0.5" stroke-linecap="round" stroke-linejoin="round"/>
<path d="M200.955 409.003C199.485 410.626 197.457 413.807 198.219 416.245C198.487 417.102 198.876 417.679 199.379 418.412C200.393 419.886 201.963 419.426 203.388 419.041C204.42 418.762 205.647 417.883 206.043 416.883C206.588 415.503 205.451 413.345 204.501 412.395C203.44 411.334 202.6 410.043 201.418 409.114C201.103 408.867 200.864 408.599 200.454 408.69C199.993 408.793 199.803 409.234 200.416 409.234" stroke="#00ADB5" stroke-opacity="0.5" stroke-linecap="round" stroke-linejoin="round"/>
<path d="M304.866 186.582C303.557 186.776 302.017 186.878 301.706 188.437C301.464 189.645 301.556 190.888 302.28 191.936C303.517 193.726 305.355 194.771 307.568 194.402C309.548 194.072 312.266 192.279 312.266 190.051C312.266 188.795 311.362 187.531 310.613 186.591C309.811 185.583 309.118 184.524 308.108 183.7C306.746 182.589 305.646 182.48 304.421 183.79C303.751 184.507 303.117 185.485 302.823 186.424C302.679 186.887 302.785 187.258 302.785 187.722C302.785 188.34 302.67 187.428 302.785 187.122" stroke="#00ADB5" stroke-opacity="0.5" stroke-linecap="round" stroke-linejoin="round"/>
<path d="M311.65 190.122C312.764 191.111 313.708 192.005 315.677 192.053C317.056 192.087 318.435 191.743 319.727 191.372C320.652 191.107 323.618 189.702 321.215 189.589" stroke="#00ADB5" stroke-opacity="0.5" stroke-linecap="round" stroke-linejoin="round"/>
<path d="M323.135 181.495C321.666 183.118 319.637 186.299 320.399 188.737C320.667 189.594 321.056 190.171 321.559 190.903C322.573 192.377 324.143 191.918 325.568 191.533C326.601 191.254 327.828 190.375 328.223 189.375C328.769 187.994 327.631 185.837 326.681 184.887C325.62 183.826 324.78 182.535 323.598 181.606C323.283 181.359 323.045 181.091 322.634 181.182C322.173 181.285 321.983 181.726 322.596 181.726" stroke="#00ADB5" stroke-opacity="0.5" stroke-linecap="round" stroke-linejoin="round"/>
<path d="M192.125 139.395C199.672 135.8 205.772 129.855 211.907 124.249C216.728 119.843 221.784 115.49 227.105 111.688C228.155 110.937 229.638 109.428 231.057 110.071C232.464 110.709 233.274 112.445 234.386 113.473C237.123 116.005 239.585 119.099 241.835 122.074C244.313 125.349 240.598 127.162 238.301 129.306C235.692 131.742 233.2 134.254 230.351 136.403C227.642 138.446 225.466 141.262 222.986 143.575C219.207 147.1 215.672 150.853 211.904 154.381C209.661 156.481 207.087 158.196 204.927 160.371C204.17 161.133 203.47 162.141 202.597 162.775C201.896 163.285 200.926 161.325 200.676 160.956C198.695 158.026 195.626 156.021 193.686 152.957C192.467 151.03 191.646 148.652 190.186 146.892C189.489 146.052 187.747 144.161 188.51 142.934C189.29 141.681 191.503 141.081 192.71 140.184C193.651 139.484 194.795 138.621 195.866 138.134C196.644 137.781 197.408 137.154 198.104 136.672C199.936 135.402 197.995 135.945 196.756 136.417" stroke="#00ADB5" stroke-opacity="0.5" stroke-linecap="round" stroke-linejoin="round"/>
<path d="M193.278 145.148C197.872 147.992 201.993 152.108 205.58 156.167C205.67 156.27 206.543 156.878 206.41 157.103C206.153 157.538 203.171 155.575 202.887 155.379" stroke="#00ADB5" stroke-opacity="0.5" stroke-linecap="round" stroke-linejoin="round"/>
<path d="M197.832 141.036C201.557 142.102 203.777 144.132 206.784 146.303C208.124 147.27 209.488 148.143 210.69 149.281C211.255 149.815 211.657 150.518 212.179 151.094C212.894 151.883 209.974 150.178 209.63 149.981" stroke="#00ADB5" stroke-opacity="0.5" stroke-linecap="round" stroke-linejoin="round"/>
<path d="M203.244 137.848C205.851 140.201 208.471 142.521 211.159 144.778C212.18 145.636 213.34 146.423 214.222 147.434C215.788 149.227 213.737 146.9 213.041 146.243" stroke="#00ADB5" stroke-opacity="0.5" stroke-linecap="round" stroke-linejoin="round"/>
<path d="M206.896 135.606C208.83 136.781 210.849 137.92 212.486 139.505C213.158 140.156 213.715 140.922 214.433 141.524C215.317 142.266 216.092 143.132 216.982 143.853C218.25 144.88 218.441 145.18 216.935 143.891" stroke="#00ADB5" stroke-opacity="0.5" stroke-linecap="round" stroke-linejoin="round"/>
<path d="M211.604 132.154C213.737 133.824 215.712 135.519 217.495 137.555C218.285 138.457 218.922 139.498 219.924 140.19C220.843 140.824 221.486 141.007 220.411 139.977" stroke="#00ADB5" stroke-opacity="0.5" stroke-linecap="round" stroke-linejoin="round"/>
<path d="M216.137 128.637C218.015 130.048 219.866 131.336 221.367 133.154C222.053 133.986 222.595 134.942 223.362 135.709C224.92 137.268 223.849 136.482 222.722 135.424" stroke="#00ADB5" stroke-opacity="0.5" stroke-linecap="round" stroke-linejoin="round"/>
<path d="M220.317 124.987C222.954 127.509 225.162 130.463 227.803 132.954C229.582 134.632 227.034 131.944 226.617 131.466" stroke="#00ADB5" stroke-opacity="0.5" stroke-linecap="round" stroke-linejoin="round"/>
<path d="M225.421 122.085C227.641 121.179 229.943 120.099 231.135 117.884C231.464 117.274 231.888 116.742 232.023 116.054C232.209 115.109 232.172 115.515 231.472 116.126" stroke="#00ADB5" stroke-opacity="0.5" stroke-linecap="round" stroke-linejoin="round"/>
<path d="M228.994 125.133C230.754 123.5 232.721 121.716 234.01 119.644C234.653 118.61 235.878 117.348 234.165 118.843" stroke="#00ADB5" stroke-opacity="0.5" stroke-linecap="round" stroke-linejoin="round"/>
<path d="M234.635 128.555C236.238 126.813 237.665 125.192 239.141 123.371C239.617 122.782 241.07 122.018 239.322 122.485" stroke="#00ADB5" stroke-opacity="0.5" stroke-linecap="round" stroke-linejoin="round"/>
<path d="M233.36 127.674C235.038 126.236 236.935 124.562 238.265 122.747C238.62 122.262 238.893 121.723 239.218 121.219C239.762 120.376 239.796 120.661 238.971 120.748" stroke="#00ADB5" stroke-opacity="0.5" stroke-linecap="round" stroke-linejoin="round"/>
<path d="M197.808 148.053C206.168 144.657 208.231 135.44 215.043 130.228C215.872 129.594 216.545 128.889 217.512 128.45C218.158 128.157 218.956 128.016 219.544 127.641C219.903 127.411 222.882 125.135 220.812 126.076" stroke="#00ADB5" stroke-opacity="0.5" stroke-linecap="round" stroke-linejoin="round"/>
<path d="M193.915 145.588C194.854 144.447 195.687 143.471 196.877 142.646C197.072 142.51 197.373 142.488 197.534 142.307C197.852 141.949 198.334 141.425 198.456 140.964C198.939 139.145 201.297 139.481 202.55 138.569C203.741 137.702 204.888 136.823 206.103 135.966C207.441 135.022 208.06 134.194 209.135 132.984C210.122 131.872 211.081 130.748 212.126 129.696C212.981 128.835 214.324 128.052 214.868 126.95C215.482 125.707 217.052 124.284 218.465 124.514C218.95 124.594 222.515 126.66 220.185 125.339" stroke="#00ADB5" stroke-opacity="0.5" stroke-linecap="round" stroke-linejoin="round"/>
<path d="M201.48 150.033C207.763 146.72 211.249 139.495 215.492 134.037C217.055 132.027 219.288 130.691 220.924 128.716C221.624 127.871 223.169 126.974 221.372 126.989" stroke="#00ADB5" stroke-opacity="0.5" stroke-linecap="round" stroke-linejoin="round"/>
<path d="M203.723 152.08C209.416 148.58 213.06 142.069 217.202 136.91C219.086 134.562 220.905 132.166 222.812 129.837C223.682 128.776 225.198 128.113 223.252 129.2" stroke="#00ADB5" stroke-opacity="0.5" stroke-linecap="round" stroke-linejoin="round"/>
<path d="M205.966 155.732C209.518 152.268 212.386 148.53 215.292 144.523C217.059 142.087 218.587 139.348 220.662 137.155C221.853 135.896 222.769 134.422 223.85 133.088C224.286 132.55 224.586 131.924 225.034 131.391C226.042 130.19 225.339 131.276 224.637 131.928" stroke="#00ADB5" stroke-opacity="0.5" stroke-linecap="round" stroke-linejoin="round"/>
<path d="M206.801 157.25C208.569 155.518 211.159 153.852 212.338 151.605C212.766 150.79 213.825 148.821 214.568 148.322C215.551 147.662 216.019 146.259 216.733 145.377C217.478 144.458 218.207 143.561 219.015 142.687C219.772 141.867 220.015 140.428 220.952 139.723C221.997 138.937 222.505 137.72 223.339 136.782C224.06 135.97 225.433 135.129 226.328 134.508C226.824 134.165 227.17 133.696 227.732 133.441C228.872 132.923 228.132 133.188 227.089 133.149" stroke="#00ADB5" stroke-opacity="0.5" stroke-linecap="round" stroke-linejoin="round"/>
<path d="M225.278 122.734C226.74 123.119 228.543 123.384 229.876 124.181C230.736 124.695 231.485 125.211 229.919 124.275" stroke="#00ADB5" stroke-opacity="0.5" stroke-linecap="round" stroke-linejoin="round"/>
<path d="M226.796 120.293C228.882 120.838 230.357 121.449 232.057 122.558C233.17 123.283 232.991 123.082 231.833 122.384" stroke="#00ADB5" stroke-opacity="0.5" stroke-linecap="round" stroke-linejoin="round"/>
<path d="M229.327 117.83C231.118 118.837 232.856 119.982 234.708 120.859C235.797 121.375 235.226 121.339 234.385 120.933" stroke="#00ADB5" stroke-opacity="0.5" stroke-linecap="round" stroke-linejoin="round"/>
<path d="M230.768 115.862C232.651 116.719 234.388 117.573 236.122 118.652C236.913 119.144 236.195 119.176 235.595 118.778" stroke="#00ADB5" stroke-opacity="0.5" stroke-linecap="round" stroke-linejoin="round"/>
<path d="M226.202 121.876C227.625 120.184 229.052 118.581 230.348 116.847C230.716 116.355 232.958 113.612 231.989 115.015" stroke="#00ADB5" stroke-opacity="0.5" stroke-linecap="round" stroke-linejoin="round"/>
<path d="M227.697 124.846C229.548 123.209 232.216 121.027 232.814 118.581C232.99 117.862 233.371 117.143 233.93 116.647C234.497 116.145 235.09 115.919 234.243 116.765" stroke="#00ADB5" stroke-opacity="0.5" stroke-linecap="round" stroke-linejoin="round"/>
<path d="M226.212 124.791C228.186 122.664 229.874 121.235 230.989 118.616C231.279 117.935 231.611 117.372 232.086 116.836C232.59 116.269 233.313 115.738 232.34 116.753" stroke="#00ADB5" stroke-opacity="0.5" stroke-linecap="round" stroke-linejoin="round"/>
<path d="M233.547 125.838C234.456 126.414 235.368 126.948 236.313 127.428C236.703 127.626 236.22 127.243 236.054 127.18" stroke="#00ADB5" stroke-opacity="0.5" stroke-linecap="round" stroke-linejoin="round"/>
<path d="M235.319 122.99C235.38 123.042 238.954 126.105 238.32 125.422" stroke="#00ADB5" stroke-opacity="0.5" stroke-linecap="round" stroke-linejoin="round"/>
<path d="M237.442 121.88C238.23 122.638 240.645 124.857 239.795 124.168" stroke="#00ADB5" stroke-opacity="0.5" stroke-linecap="round" stroke-linejoin="round"/>
<path d="M232.491 127.047C233.798 125.831 236.663 123.42 237.365 121.55C237.642 120.813 238.909 119.866 237.717 120.879" stroke="#00ADB5" stroke-opacity="0.5" stroke-linecap="round" stroke-linejoin="round"/>
<path d="M232.656 127.41C232.78 127.51 235.279 130.201 235.812 128.896C236.084 128.23 236.438 127.362 237.105 126.995C238.276 126.351 238.492 124.322 239.69 123.778C241.05 123.16 240.923 122.125 239.657 121.758C239.159 121.613 239.552 120.633 239.035 120.71C238.562 120.781 238.312 120.606 237.783 120.703" stroke="#00ADB5" stroke-opacity="0.5" stroke-linecap="round" stroke-linejoin="round"/>
<path d="M225.113 122.371C225.97 124.009 226.132 124.602 227.515 125.285C227.888 125.47 228.376 125.214 228.659 125.358C229.219 125.642 230.327 125.648 230.746 125.132C231.587 124.093 231.897 123.423 233.185 122.791C233.999 122.393 234.653 121.452 235.029 120.673C235.442 119.816 236.187 119.171 236.624 118.311C236.81 117.945 235.309 117.002 235.295 116.368C235.292 116.188 233.51 116.183 233.213 116.033C232.854 115.85 232.689 115.593 232.517 115.214C232.265 114.659 231.819 115.348 231.142 115.4" stroke="#00ADB5" stroke-opacity="0.5" stroke-linecap="round" stroke-linejoin="round"/>
<path d="M195.434 143.147C197.458 143.916 199.224 144.908 201.046 146.006C202.629 146.96 204.417 147.467 205.989 148.391C207.108 149.049 208.27 150.551 209.096 151.537C209.371 151.866 209.577 152.173 209.772 152.544C210.22 153.394 209.754 151.339 209.707 151.114" stroke="#00ADB5" stroke-opacity="0.5" stroke-linecap="round" stroke-linejoin="round"/>
<path d="M214.982 127.701C215.544 128.291 217.817 131.545 217.368 129.099" stroke="#00ADB5" stroke-opacity="0.5" stroke-linecap="round" stroke-linejoin="round"/>
<path d="M219.661 353.572C219.902 354.811 220.514 355.616 220.989 356.744C221.312 357.511 221.916 358.106 222.253 358.859C222.616 359.672 223.161 360.628 223.667 361.352C224.102 361.972 224.386 362.56 224.935 363.109C225.903 364.077 226.636 365.232 227.61 366.187C229.025 367.575 231.421 369.386 233.482 369.272C234.144 369.235 234.877 369.44 235.527 369.342C236.084 369.258 236.761 369.23 237.319 369.326C238.236 369.485 239.232 369.325 240.109 369.515C240.583 369.618 241.099 369.468 241.578 369.557C242.2 369.672 242.929 369.701 243.562 369.701C245.636 369.701 247.705 369.688 249.774 369.426C250.895 369.283 252.005 369.655 253.115 369.458C254.156 369.272 255.543 369.464 256.523 369.035C257.727 368.508 258.924 367.68 259.854 366.75C260.321 366.284 260.674 365.727 260.99 365.15C261.405 364.393 261.636 363.576 262.053 362.821C263.506 360.186 264.335 357.253 265.512 354.507C265.789 353.859 266.245 353.335 266.578 352.737C266.662 352.586 266.7 352.393 266.837 352.247C267.35 351.704 266.367 351.646 265.915 351.441" stroke="#00ADB5" stroke-opacity="0.5" stroke-linecap="round" stroke-linejoin="round"/>
<path d="M219.43 353.687C220.46 352.341 221.333 351.351 222.829 350.59C224.081 349.952 225.38 349.195 226.512 348.362C228.251 347.084 230.645 346.514 232.762 346.129C235.067 345.71 237.335 345.22 239.681 345.22C240.406 345.22 241.124 345.438 241.85 345.45C242.719 345.465 243.59 345.492 244.455 345.566C245.783 345.679 247.145 345.652 248.474 345.681C250.329 345.721 252.105 346.681 253.959 346.83C255.063 346.918 256.349 347.083 257.422 347.383C257.824 347.496 258.282 347.572 258.657 347.754C259.124 347.981 259.451 348.365 259.88 348.631C261.263 349.492 262.81 349.897 264.305 350.551C264.764 350.752 265.552 351.095 266.059 351.095C266.758 351.095 266.721 352.385 266.721 351.095" stroke="#00ADB5" stroke-opacity="0.5" stroke-linecap="round" stroke-linejoin="round"/>
<path d="M266.606 351.902C265.752 353.047 265.143 353.483 263.931 354.151C262.979 354.676 261.925 355.048 260.859 355.243C259.863 355.425 258.776 355.568 257.767 355.649C256.928 355.716 256.071 355.619 255.214 355.716C253.274 355.937 251.318 356.437 249.447 356.984C246.777 357.764 244.198 357.845 241.44 357.995C238.43 358.158 235.411 357.928 232.461 357.316C231.466 357.11 230.414 357.295 229.402 357.256C228.286 357.212 227.193 356.905 226.144 356.542C225.702 356.389 225.295 356.155 224.832 356.049C224.29 355.926 223.738 355.974 223.2 355.844C222.45 355.663 221.574 355.336 220.941 354.897C220.665 354.706 220.251 354.549 220.035 354.26C219.972 354.176 219.891 353.989 219.891 353.889C219.891 353.651 219.696 353.711 220.006 353.918" stroke="#00ADB5" stroke-opacity="0.5" stroke-linecap="round" stroke-linejoin="round"/>
<path d="M241.838 363.595C242.539 363.517 243.465 363.53 243.175 362.629C243.082 362.339 242.848 362.308 242.599 362.225C241.858 361.978 240.532 362.457 240.253 363.23C239.754 364.618 240.7 366.118 242.186 365.637C242.591 365.506 243.308 365.22 243.566 364.853C243.874 364.412 243.411 364.542 243.105 364.113" stroke="#00ADB5" stroke-opacity="0.5" stroke-linecap="round" stroke-linejoin="round"/>
<path d="M239.706 362.097C240.824 361.649 241.395 361.464 242.526 361.464C242.981 361.464 243.209 361.432 243.61 361.694C244.274 362.128 244.502 362.952 244.433 363.678C244.374 364.291 244.172 365.131 243.956 365.713C243.796 366.146 243.399 366.221 242.993 366.302C242.622 366.376 241.813 366.169 241.521 366.331C241.211 366.503 240.263 366.561 240.023 366.241C239.803 365.947 239.566 365.821 239.405 365.464C239.252 365.123 239.183 364.798 239.06 364.459C238.891 363.994 238.587 362.723 239.217 362.443C239.586 362.279 239.744 362.181 240.167 362.181C240.287 362.181 240.39 362.27 240.513 362.27C240.69 362.27 240.171 362.155 239.994 362.155" stroke="#00ADB5" stroke-opacity="0.5" stroke-linecap="round" stroke-linejoin="round"/>
<path d="M241.722 357.489C242.535 356.439 243.276 355.355 244.116 354.334C244.567 353.785 245.127 353.313 245.614 352.788C247.006 351.285 248.424 349.639 249.486 347.882C250.531 346.152 251.958 344.267 253.508 342.967C254.327 342.28 255.059 341.522 255.771 340.73C256.462 339.962 256.78 338.889 257.435 338.077C257.942 337.449 261.26 333.174 261.838 335.773C262.065 336.795 261.069 337.509 260.443 338.135C259.733 338.845 259.019 339.747 258.414 340.554C257.831 341.332 257.121 342.016 256.555 342.801C255.784 343.868 254.381 344.632 253.819 345.841C253.355 346.838 252.585 347.64 252.007 348.564C251.207 349.845 250.269 350.915 249.326 352.087C248.578 353.016 247.407 353.78 246.878 354.839C246.435 355.724 245.651 356.097 244.935 356.67C244.624 356.919 244.245 357.058 243.969 357.403C243.877 357.518 243.712 357.65 243.626 357.521C243.577 357.448 243.39 357.613 243.425 357.694C243.548 357.981 243.249 357.005 243.22 356.913" stroke="#00ADB5" stroke-opacity="0.5" stroke-linecap="round" stroke-linejoin="round"/>
<path d="M241.261 357.777C241.482 357.889 242.874 358.946 242.874 358.094C242.874 357.836 243.206 357.406 243.322 357.144C243.411 356.945 242.615 357.135 242.497 357.288C242.342 357.486 242.042 357.648 242.529 357.662C242.903 357.673 243.195 357.512 243.479 357.291C243.561 357.227 244.66 357.401 243.681 357.374C243.16 357.359 242.654 357.374 242.154 357.374C241.722 357.374 242.598 357.259 242.724 357.259C242.825 357.259 241.994 357.753 241.85 357.592C241.815 357.552 241.755 357.444 241.895 357.374" stroke="#00ADB5" stroke-opacity="0.5" stroke-linecap="round" stroke-linejoin="round"/>
<path d="M222.944 353.515C223.009 353.549 225.067 354.627 225.075 354.494C225.085 354.333 224.97 354.192 225.05 354.033C225.398 353.336 225.849 353.671 226.448 353.94C226.916 354.151 226.206 351.82 227.616 352.804C228.345 353.313 228.539 353.232 228.419 352.379C228.329 351.733 228.552 351.731 229.107 351.799C229.485 351.846 229.756 351.928 229.971 351.569C230.233 351.133 230.528 350.885 231.063 351.073C231.506 351.229 231.9 351.668 232.205 351.108C232.339 350.862 232.226 350.125 232.65 350.267C232.916 350.355 233.266 350.702 233.568 350.593C233.798 350.51 233.974 349.799 234.234 349.911C234.505 350.029 234.781 350.543 235.124 350.42C235.289 350.361 235.595 349.821 235.271 349.886" stroke="#00ADB5" stroke-opacity="0.5" stroke-linecap="round" stroke-linejoin="round"/>
<path d="M231.066 352.478C231.78 353.059 234.454 356.162 235.239 353.844C235.38 353.429 235.402 352.607 235.796 353.287C236.12 353.848 236.609 354.237 237.14 353.707C237.492 353.355 237.648 352.758 238.151 352.574C238.613 352.405 238.951 353.273 239.335 352.766C239.645 352.357 239.495 351.654 239.041 351.409C238.892 351.328 238.85 351.606 238.785 351.671" stroke="#00ADB5" stroke-opacity="0.5" stroke-linecap="round" stroke-linejoin="round"/>
<path d="M237.229 348.907C238.342 348.715 239.743 348.326 240.589 349.323C240.982 349.784 240.944 350.374 240.685 350.897C240.496 351.279 239.987 351.47 239.661 351.095C239.395 350.788 239.945 350.281 240.141 350.094C240.816 349.451 241.815 350.48 242.026 351.179C242.203 351.762 240.608 353.114 240.801 352.535" stroke="#00ADB5" stroke-opacity="0.5" stroke-linecap="round" stroke-linejoin="round"/>
<path d="M255.95 350.865C256.28 350.751 258.406 350.067 257.998 351.198C257.789 351.778 256.987 352.089 256.462 352.279C256.213 352.369 255.571 352.354 255.988 351.991C256.349 351.678 256.858 351.53 257.332 351.569C259.181 351.719 256.596 353.843 256.065 354.136C255.034 354.704 253.631 355.303 252.551 354.609" stroke="#00ADB5" stroke-opacity="0.5" stroke-linecap="round" stroke-linejoin="round"/>
<path d="M244.602 347.466C245.041 348.18 245.568 348.896 245.943 349.646C246.072 349.904 245.514 349.243 245.383 348.987C245.348 348.919 245.108 348.162 245.085 348.167C244.805 348.23 244.739 349.514 244.663 349.751C244.304 350.873 243.417 350.443 242.548 350.359C241.495 350.258 241.024 351.296 240.442 351.959C239.976 352.49 239.793 352.653 240.109 353.284C240.365 353.795 240.471 354.291 240.109 354.753C239.827 355.114 239.474 355.342 239.133 355.64C238.821 355.912 239.269 355.867 239.21 355.704C239.05 355.256 238.064 355.349 237.741 355.371C236.542 355.45 235.321 355.149 234.144 355.224C233.519 355.263 232.93 355.612 232.311 355.704C231.681 355.797 232.513 356.343 232.749 356.5C233.155 356.771 231.955 355.925 231.514 355.716C230.774 355.366 230.092 355.096 229.709 354.321C229.325 353.545 228.988 353.016 228.339 352.446C228.116 352.249 228.089 351.951 228.198 351.684C228.451 351.067 229.012 350.565 229.568 350.231" stroke="#00ADB5" stroke-opacity="0.5" stroke-linecap="round" stroke-linejoin="round"/>
<path d="M244.487 349.771C243.043 348.763 241.852 348.329 240.154 348.1C239.557 348.02 238.921 347.607 238.532 347.15C238.186 346.744 238.382 346.852 237.975 347.402C237.419 348.155 237.006 347.48 236.295 347.678C235.206 347.981 234.271 348.994 233.165 349.182C232.862 349.233 232.935 348.727 232.557 348.945C231.92 349.312 231.433 349.66 230.688 349.777C230.238 349.848 229.384 350.144 229.453 350.692" stroke="#00ADB5" stroke-opacity="0.5" stroke-linecap="round" stroke-linejoin="round"/>
<path d="M254.279 349.771C255.673 349.905 257.084 349.888 258.472 350.036C258.96 350.088 259.21 350.286 259.553 350.606C259.863 350.894 260.347 351.574 260.792 351.611C261.433 351.664 261.764 351.398 262.363 351.211C262.723 351.098 263.873 351.211 263.496 351.211" stroke="#00ADB5" stroke-opacity="0.5" stroke-linecap="round" stroke-linejoin="round"/>
<path d="M253.243 351.326C251.745 352.313 250.945 353.81 249.342 354.708C249.024 354.886 248.053 355.231 248.126 355.816C248.179 356.239 251.424 354.914 251.918 354.667" stroke="#00ADB5" stroke-opacity="0.5" stroke-linecap="round" stroke-linejoin="round"/>
<path d="M258.83 352.708C259.644 353.314 260.347 354.181 261.365 353.873C261.64 353.79 262.216 353.757 262.401 353.572" stroke="#00ADB5" stroke-opacity="0.5" stroke-linecap="round" stroke-linejoin="round"/>
<path d="M356.065 217.051C357.144 221.123 361.31 236.26 362.307 241.791C365.051 257.019 360.745 236.24 360.735 242.966" stroke="#00ADB5" stroke-opacity="0.5" stroke-width="2" stroke-linecap="round" stroke-linejoin="round"/>
<path d="M348.754 223.634C348.386 217.438 346.996 208.838 355.684 209.723C359.772 210.14 364.274 212.566 366.822 215.812C370.76 220.828 368.683 228.604 364.428 232.596C362.163 234.72 359.966 235.785 357.003 236.588C351.982 237.949 355.944 230.976 356.753 229.064" stroke="#00ADB5" stroke-opacity="0.5" stroke-width="2" stroke-linecap="round" stroke-linejoin="round"/>
<path d="M371.352 231.207C379.985 230.745 387.931 229.046 391.02 238.408C392.814 243.849 395 250.46 393.504 256.194C392.152 261.375 389.24 264.614 383.916 262.407C376.308 259.253 376.318 253.315 380.459 247.393C381.984 245.213 387.823 240.847 387.827 238.298" stroke="#00ADB5" stroke-opacity="0.5" stroke-width="2" stroke-linecap="round" stroke-linejoin="round"/>
<path d="M386.912 221.104C386.618 223.375 386.613 239.444 382.264 239.598C381.448 239.627 380.764 240.051 380.051 240.406C377.313 241.769 378.979 240.542 380.001 239.123C382.316 235.909 387.006 237.097 389.353 232.831C391.903 228.199 393.077 225.921 389.422 222.338C386.861 219.826 387.986 215.555 385.969 221.573" stroke="#00ADB5" stroke-opacity="0.5" stroke-width="2" stroke-linecap="round" stroke-linejoin="round"/>
<path d="M399.653 206.522C402.99 214.033 406.039 223.815 411.392 230.354C412.806 232.082 413.6 230.578 413.578 229.232C413.551 227.532 413.072 225.816 412.579 224.206" stroke="#00ADB5" stroke-opacity="0.5" stroke-width="2" stroke-linecap="round" stroke-linejoin="round"/>
<path d="M389.966 226.055C395.26 223.972 408.258 221.864 410.473 215.253" stroke="#00ADB5" stroke-opacity="0.5" stroke-width="2" stroke-linecap="round" stroke-linejoin="round"/>
<path d="M406.247 206.768C429.192 246.902 406.838 218.694 418.5 211.353C425.58 206.898 426.17 227.897 428.132 218.814" stroke="#00ADB5" stroke-opacity="0.5" stroke-width="2" stroke-linecap="round" stroke-linejoin="round"/>
<path d="M426.74 205.387C427.572 207.876 430.368 224.307 436.189 220.554C438.792 218.875 441.824 215.675 442.325 212.529C442.864 209.154 440.755 200.579 435.984 201.502C433.806 201.924 430.164 202.025 428.744 204.095C427.371 206.095 426.504 210.779 428.152 205.86" stroke="#00ADB5" stroke-opacity="0.5" stroke-width="2" stroke-linecap="round" stroke-linejoin="round"/>
<path d="M442.997 201.409C449.504 197.231 457.152 195.86 458.142 205.698C458.266 206.933 458.289 208.488 458.856 209.625C459.512 210.943 458.163 206.403 456.886 205.67" stroke="#00ADB5" stroke-opacity="0.5" stroke-width="2" stroke-linecap="round" stroke-linejoin="round"/>
<path d="M442.52 205.176C442.814 210.319 442.079 217.286 444.482 222.111C444.564 222.275 445.135 223.534 444.847 222.844C444.278 221.479 444.042 220.553 442.969 219.073" stroke="#00ADB5" stroke-opacity="0.5" stroke-width="2" stroke-linecap="round" stroke-linejoin="round"/>
<path d="M277.833 251.734C276.932 260.093 278.503 285.829 264.305 284.227C261.345 283.894 258.657 283.399 257.251 280.61C255.778 277.69 254.56 275.149 254.414 271.832C254.234 267.758 255.856 265.835 259.15 263.996C260.305 263.352 257.823 265.962 257.603 266.215C256.155 267.878 261.067 265.851 262.945 265.435" stroke="#00ADB5" stroke-opacity="0.5" stroke-width="2" stroke-linecap="round" stroke-linejoin="round"/>
<path d="M296.06 255.75C288.879 256.422 278.743 257.783 277.584 266.767C276.956 271.64 284.201 272.232 287.345 273.892C292.748 276.743 296.848 286.043 290.787 290.136C286.573 292.982 283.385 291.469 279.286 291.753C275.121 292.042 278.021 290.507 280.49 290.086" stroke="#00ADB5" stroke-opacity="0.5" stroke-width="2" stroke-linecap="round" stroke-linejoin="round"/>
<path d="M334.973 34.5733C334.397 40.3405 334.047 46.1668 333.336 51.9203C333.267 52.4739 332.722 54.6592 333.367 52.8924C333.838 51.6006 333.686 50.2544 334.442 49.0294C335.485 47.3421 340.194 40.9151 342.406 41.5652C346.839 42.8682 342.365 51.0911 341.096 53.4474C340.658 54.26 339.465 56.0228 340.083 56.9341C340.906 58.149 342.429 53.6592 342.494 53.5218" stroke="#00ADB5" stroke-opacity="0.5" stroke-width="2" stroke-linecap="round" stroke-linejoin="round"/>
<path d="M352.482 38.3603C351.956 40.9369 347.543 53.655 351.795 55.7616C352.995 56.3561 355.65 55.2339 356.475 54.2665C357.334 53.2591 356.885 51.7166 356.792 50.5474" stroke="#00ADB5" stroke-opacity="0.5" stroke-width="2" stroke-linecap="round" stroke-linejoin="round"/>
<path d="M343.733 38.6382C348.398 40.0256 353.196 40.9493 357.832 42.3807C358.926 42.7186 359.336 42.8716 359.925 43.8477C360.841 45.366 358.407 43.9791 357.987 43.5192" stroke="#00ADB5" stroke-opacity="0.5" stroke-width="2" stroke-linecap="round" stroke-linejoin="round"/>
<path d="M364.831 47.6529C363.76 50.8857 362.754 54.1591 361.531 57.3404C361.289 57.9729 361.252 58.2042 361.121 57.7211C360.995 57.2557 360.872 56.9815 361.079 56.49C362.177 53.878 364.74 50.1241 367.158 48.6652C369.768 47.0897 368.344 52.3816 367.993 53.4529C367.599 54.656 366.538 57.9535 367.745 54.7627C368.462 52.8638 370.11 48.1445 372.888 48.8314C374.57 49.2474 374.182 51.5219 373.885 52.7246C373.336 54.9425 372.791 57.1455 372.241 59.3708C371.437 62.6225 371.871 60.8665 372.459 58.4903" stroke="#00ADB5" stroke-opacity="0.5" stroke-width="2" stroke-linecap="round" stroke-linejoin="round"/>
<path d="M385.569 40.5746C383.893 46.6026 381.837 52.6134 380.393 58.7041C380.224 59.4184 379.854 62.0633 380.992 62.3784C382.072 62.6777 386.341 60.1129 385.298 59.2237" stroke="#00ADB5" stroke-opacity="0.5" stroke-width="2" stroke-linecap="round" stroke-linejoin="round"/>
<path d="M95.4273 286.46C91.464 293.989 87.5135 301.525 83.5395 309.048C82.4068 311.193 80.1712 317.753 79.8944 315.344C79.5191 312.077 81.5151 307.504 82.3621 304.443C83.5574 300.122 85.9913 291.491 92.0562 291.522C96.6342 291.547 101.781 298.26 102.491 302.449C102.992 305.406 104.45 302.066 106.428 301.174" stroke="#00ADB5" stroke-opacity="0.5" stroke-width="2" stroke-linecap="round" stroke-linejoin="round"/>
<path d="M107.712 310.581C110.376 316.775 114.302 327.246 122.386 321.485C126.101 318.838 124.255 314.308 120.588 312.869C111.601 309.343 100.276 319.189 98.0347 327.282C95.7938 335.374 104.64 337.855 110.725 338.654C114.092 339.096 113.337 336.218 116.234 335.216" stroke="#00ADB5" stroke-opacity="0.5" stroke-width="2" stroke-linecap="round" stroke-linejoin="round"/>
<path d="M130.095 331.997C123.113 329.082 113.864 326.483 109.93 335.405C108.033 339.705 116.52 340.21 119.038 340.091C123.846 339.865 134.552 328.735 130.945 331.922C127.779 334.719 124.576 338.02 123.274 342.15C122.434 344.818 123.399 350.711 126.492 346.641" stroke="#00ADB5" stroke-opacity="0.5" stroke-width="2" stroke-linecap="round" stroke-linejoin="round"/>
<path d="M157.244 337.579C147.111 338.551 135.102 339.06 131.507 350.445C129.74 356.041 133.886 359.933 138.882 361.575C142.373 362.723 145.932 360.231 148.05 357.703" stroke="#00ADB5" stroke-opacity="0.5" stroke-width="2" stroke-linecap="round" stroke-linejoin="round"/>
<path d="M166.448 339.123C165.892 339.799 140.931 367.004 152.829 367.214C156.124 367.273 159.505 365.356 161.773 363.201" stroke="#00ADB5" stroke-opacity="0.5" stroke-width="2" stroke-linecap="round" stroke-linejoin="round"/>
<path d="M145.305 344.073C150.098 347.378 154.823 350.878 160.08 353.432C161.445 354.096 163.72 354.412 164.66 355.788C165.188 356.561 164.358 354.725 164.266 354.458" stroke="#00ADB5" stroke-opacity="0.5" stroke-width="2" stroke-linecap="round" stroke-linejoin="round"/>
<path d="M91.8483 126.255C95.8701 133.133 108.642 153.199 103.457 147.15C100.143 143.283 97.6254 138.151 95.524 133.576C93.3189 128.776 91.2483 120.211 99.6514 120.645C106.864 121.019 109.743 128.384 111.012 134.421C111.571 137.084 111.714 139.153 112.909 141.575C114.13 144.052 114.198 134.509 114.662 132.033" stroke="#00ADB5" stroke-opacity="0.5" stroke-width="2" stroke-linecap="round" stroke-linejoin="round"/>
<path d="M117.833 112.267C118.057 113.307 121.533 137.092 126.579 132.518C128.704 130.592 129.171 125.844 129.444 123.243C130.296 115.114 126.862 114.11 121.155 112.39C118.433 111.569 117.875 111.606 117.127 114.409C115.592 120.164 118.012 118.547 121.113 115.347" stroke="#00ADB5" stroke-opacity="0.5" stroke-width="2" stroke-linecap="round" stroke-linejoin="round"/>
<path d="M139.773 105.557C136.97 110.282 133.395 115.84 135.367 121.627C136.185 124.028 138.088 123.393 139.421 122.042C141.524 119.909 142.621 116.404 142.504 113.475C142.28 107.861 138.763 103.057 135.072 99.0676C134.561 98.5145 129.9 94.6725 130.813 97.9712C132.452 103.896 137.015 109.595 140.194 114.745C145.434 123.232 147.041 119.936 149.395 111.969" stroke="#00ADB5" stroke-opacity="0.5" stroke-width="2" stroke-linecap="round" stroke-linejoin="round"/>
<path d="M149.893 107.026C151.633 108.649 165.363 118.456 165.789 109.757C165.827 108.968 164.821 108.721 164.49 108.049C163.635 106.316 162.219 105.173 161.449 104.264" stroke="#00ADB5" stroke-opacity="0.5" stroke-width="2" stroke-linecap="round" stroke-linejoin="round"/>
<path d="M151.038 112.921C145.602 105.782 138.008 98.3595 145.792 91.302C149.072 88.3282 155.878 90.6797 155.7 95.6483C155.617 97.9624 155.129 103.685 151.805 104.289C150.048 104.608 149.238 103.458 150.863 101.85" stroke="#00ADB5" stroke-opacity="0.5" stroke-width="2" stroke-linecap="round" stroke-linejoin="round"/>
<path d="M163.448 83.3129C166.963 85.5493 192.008 100.35 178.89 106.819C176.845 107.828 175.046 105.478 173.959 103.966C171.509 100.558 178.647 95.7227 178.944 92.1126" stroke="#00ADB5" stroke-opacity="0.5" stroke-width="2" stroke-linecap="round" stroke-linejoin="round"/>
<path d="M184.005 71.4142C181.959 73.0849 170.225 83.4619 179.452 85.4683C184.549 86.5765 189.366 81.4977 193.24 78.9626C199.48 74.8787 200.798 82.7372 199.083 87.1727C198.033 89.8891 189.266 98.7785 191.665 91.7115" stroke="#00ADB5" stroke-opacity="0.5" stroke-width="2" stroke-linecap="round" stroke-linejoin="round"/>
<path d="M253.261 457.65C245.455 461.578 235.226 468.742 243.665 478.247C247.713 482.807 255.186 480.939 260.517 480.412C262.015 480.264 266.148 481.705 265.023 480.705C262.589 478.542 260.838 478.681 260.108 475.029" stroke="#00ADB5" stroke-opacity="0.5" stroke-width="2" stroke-linecap="round" stroke-linejoin="round"/>
<path d="M276.434 455.016C276.434 460.771 276.38 464.891 282.285 467.129C284.835 468.096 286.436 468.983 287.113 471.84C287.878 475.069 285.625 479.747 282.958 481.553C279.661 483.786 275.52 484.565 271.811 483.045C268.634 481.743 272.146 480.204 273.8 478.715" stroke="#00ADB5" stroke-opacity="0.5" stroke-width="2" stroke-linecap="round" stroke-linejoin="round"/>
<path d="M302.239 448.697C301.203 452.71 296.534 463.443 300.688 467.597C302.365 469.274 305.612 468.343 307.68 468.826C309.738 469.307 311.503 470.882 312.771 472.513C314.779 475.094 312.868 479.006 310.548 480.822C306.948 483.639 301.806 482.402 297.616 482.402C295.328 482.402 296.891 482.24 298.025 480.822" stroke="#00ADB5" stroke-opacity="0.5" stroke-width="2" stroke-linecap="round" stroke-linejoin="round"/>
<path d="M293.16 398.752C297.217 397.204 304.742 394.74 308.666 391.964C312.809 389.034 308.472 388.192 306.267 388.892C302.533 390.079 300.277 393.99 299.011 397.436C295.679 406.507 306.279 416.761 315.191 415.722C323.426 414.761 324.575 410.729 325.811 404.545" stroke="#00ADB5" stroke-opacity="0.5" stroke-width="2" stroke-linecap="round" stroke-linejoin="round"/>
<path d="M331.078 394.012C330.155 395.515 321.39 413.561 318.965 405.072" stroke="#00ADB5" stroke-opacity="0.5" stroke-width="2" stroke-linecap="round" stroke-linejoin="round"/>
<path d="M314.752 394.539C318.45 399.482 327.384 417.156 336.344 416.658C337.644 416.586 335.92 411.583 335.818 410.865" stroke="#00ADB5" stroke-opacity="0.5" stroke-width="2" stroke-linecap="round" stroke-linejoin="round"/>
<path d="M338.977 394.539C341.02 406.506 345.112 442.674 342.781 430.76C341.579 424.617 330.603 391.374 340.265 392.754C344.455 393.353 355.151 399.466 352.348 405.072C350.772 408.224 341.005 409.324 345.297 407.178" stroke="#00ADB5" stroke-opacity="0.5" stroke-width="2" stroke-linecap="round" stroke-linejoin="round"/>
<path d="M358.99 402.965C360.291 409.736 361.543 416.502 362.676 423.299C362.87 424.463 362.61 423.504 362.267 422.861C360.113 418.821 357.163 411.623 357.264 407.091C357.359 402.797 363.266 399.869 366.363 402.965" stroke="#00ADB5" stroke-opacity="0.5" stroke-width="2" stroke-linecap="round" stroke-linejoin="round"/>
<path d="M375.843 410.865C375.706 415.821 379.301 433.172 387.838 428.127C389.061 427.404 392.079 425.638 392.168 424.031C392.216 423.174 390.657 422.978 390.062 422.978C388.497 422.978 388.106 421.037 387.429 419.818" stroke="#00ADB5" stroke-opacity="0.5" stroke-width="2" stroke-linecap="round" stroke-linejoin="round"/>
<path d="M373.209 412.445C377.822 407.673 383.01 401.099 387.107 409.607C388.306 412.098 387.888 415.099 386.902 417.594C385.308 421.625 379.601 423.215 381.109 417.185" stroke="#00ADB5" stroke-opacity="0.5" stroke-width="2" stroke-linecap="round" stroke-linejoin="round"/>
<path d="M401.648 402.965C405.257 408.733 419.855 424.281 410.279 431.375C407.215 433.644 405.215 433.634 401.765 433.51C396.894 433.336 399.468 432.102 401.121 428.244" stroke="#00ADB5" stroke-opacity="0.5" stroke-width="2" stroke-linecap="round" stroke-linejoin="round"/>
<path d="M423.766 400.859C422.676 402.178 408.594 415.792 417.154 417.243C420.309 417.778 423.209 415.867 426.107 417.799C431.336 421.285 430.097 426.01 425.288 428.975C422.884 430.458 420.202 431.235 417.681 432.457C416.256 433.148 417.774 431.147 417.973 430.351" stroke="#00ADB5" stroke-opacity="0.5" stroke-width="2" stroke-linecap="round" stroke-linejoin="round"/>
<path d="M411.654 395.066C410.431 395.964 397.264 403.271 399.132 407.705C401.487 413.299 402.266 406.413 402.701 404.019" stroke="#00ADB5" stroke-opacity="0.5" stroke-width="2" stroke-linecap="round" stroke-linejoin="round"/>
<path d="M87.9711 222.793C90.3166 217.263 89.3559 212.444 89.3559 206.712C89.3559 205.597 89.1536 202.201 90.3254 201.593C92.1732 200.634 93.9001 199.994 96.0803 199.994C97.5298 199.994 98.9861 200.036 100.435 199.994C101.884 199.953 103.288 199.363 104.72 199.188C107.386 198.861 110.159 199.316 112.791 199.316C114.881 199.316 117.043 199.587 119.054 199.587C119.411 199.587 120.866 199.757 121.1 199.964C121.818 200.597 121.612 201.612 122.178 202.166" stroke="#00ADB5" stroke-opacity="0.5" stroke-linecap="round" stroke-linejoin="round"/>
<path d="M122.04 202.656C122.131 204.288 122.165 206.578 122.837 208.173C123.272 209.206 122.925 210.582 123.013 211.683C123.182 213.795 122.867 215.855 122.867 217.905C122.867 220.654 123.005 223.369 123.005 226.104C123.005 228.451 120.712 228.058 118.898 227.728C117.331 227.443 115.228 228.015 113.595 228.035C110.445 228.074 107.28 228.311 104.124 228.311C101.489 228.311 99.5319 227.545 97.1051 226.625C95.8092 226.133 95.0259 226.242 93.6339 226.242C92.3155 226.242 91.2314 226.036 89.9098 226.449C89.1366 226.69 87.7519 226.482 87.3121 225.69C86.7848 224.741 87.8332 224.329 87.8332 223.552C87.8332 222.9 87.7512 221.034 87.9711 222.794" stroke="#00ADB5" stroke-opacity="0.5" stroke-linecap="round" stroke-linejoin="round"/>
<path d="M103.695 206.242C103.695 206.242 104.247 206.518 104.799 207.07C105.35 207.483 106.512 207.277 107.488 207.277C108.002 207.277 108.545 206.876 109.005 206.671C109.939 206.256 109.382 207.037 109.159 207.483C108.911 207.978 109.194 208.898 109.641 209.208C110.38 209.719 111.111 209.278 111.833 208.916C112.133 208.766 112.051 208.697 112.143 208.901C112.269 209.178 112.247 209.58 112.247 209.882C112.247 210.569 112.202 211.712 111.833 212.311C111.348 213.099 110.858 213.609 110.078 214.188C109.308 214.761 108.29 215.759 107.266 215.759C105.265 215.759 103.141 215.323 102.14 213.376C101.715 212.551 100.937 211.875 100.937 210.932C100.937 210.144 100.676 209.201 100.937 208.449C101.252 207.537 102.04 206.671 101.764 206.671C101.905 206.711 103.143 205.966 103.695 206.242Z" stroke="#00ADB5" stroke-opacity="0.5" stroke-linecap="round" stroke-linejoin="round"/>
<path d="M105.971 205.759C106.747 205.472 108.519 204.87 108.936 203.932C109.259 203.206 108.193 203.07 107.626 203.07C106.938 203.07 106.123 204.02 105.94 204.621C105.839 204.956 105.742 205.298 105.642 205.637C105.593 205.8 105.658 205.918 105.691 206.07C105.717 206.185 106.769 205.632 106.73 205.474" stroke="#00ADB5" stroke-opacity="0.5" stroke-linecap="round" stroke-linejoin="round"/>
<path d="M119.908 221.273L89.3696 221.944C86.1392 222.015 83.5574 224.654 83.5574 227.885C83.5574 231.167 86.218 233.828 89.5002 233.828H120.04C123.353 233.828 126.04 231.142 126.04 227.828V227.272C126.04 223.906 123.272 221.199 119.908 221.273Z" stroke="#00ADB5" stroke-opacity="0.5"/>
<path d="M96.0588 221.777C96.5169 222.487 96.9124 223.34 97.438 223.997C97.7024 224.327 97.66 224.26 98.1725 224.07C99.0281 223.753 99.9975 223.981 100.89 223.981C101.674 223.981 102.585 223.571 103.347 223.777C104.229 224.014 105.269 223.561 106.138 223.54C107.184 223.515 108.182 223.613 109.222 223.613C109.85 223.613 110.461 223.246 111.042 223.246C111.379 223.246 112.34 223.513 112.364 222.895C112.376 222.594 112.511 222.302 112.511 221.997C112.511 221.586 112.265 221.764 111.85 221.557" stroke="#00ADB5" stroke-opacity="0.5" stroke-linecap="round" stroke-linejoin="round"/>
<path d="M245.48 71.0062C246.046 70.2862 247.131 68.9538 245.611 68.7182C245.267 68.6649 244.945 68.4628 244.608 68.6158C243.568 69.0869 242.602 70.1242 242.602 71.3575C242.602 73.3274 244.763 73.7539 246.332 73.7284C248.98 73.6854 249.786 71.1056 250.721 69.0158C251.666 66.9049 252.715 64.8281 253.695 62.7323C254.804 60.3608 256.623 58.4717 257.774 56.1219C258.267 55.1143 258.911 54.227 259.547 53.307C260.532 51.8799 261.235 50.4402 261.94 48.8578C262.518 47.5596 263.159 46.3741 263.867 45.1453C264.154 44.6484 264.046 43.8871 264.594 44.4184C265.01 44.8217 265.672 45.0867 266.231 45.1892C268.678 45.6373 270.929 46.1116 273.449 45.9112C275.998 45.7085 278.545 45.3434 281.054 44.8574C281.907 44.6922 281.543 44.8911 281.141 45.4087C280.459 46.2866 279.876 47.217 279.223 48.1065C278.371 49.2666 278.071 50.6636 277.566 51.9898C277.012 53.4477 276.352 54.8402 275.822 56.3219C274.799 59.1856 273.306 61.7972 271.458 64.2007C270.387 65.5936 269.065 68.0264 267.06 67.9279C263.957 67.7755 266.052 61.6678 267.534 60.4735C268.332 59.8306 269.205 60.5228 269.302 61.3858C269.436 62.5717 269.029 64.1967 267.878 64.7764C266.664 65.388 265.733 65.3146 266.667 63.7373C267.233 62.7829 267.569 63.8332 267.801 63.3665" stroke="#00ADB5" stroke-opacity="0.5" stroke-width="2" stroke-linecap="round" stroke-linejoin="round"/>
<path d="M454.306 159.664C451.71 154.959 451.863 153.615 452.455 148.879C452.781 146.272 452.906 143.723 453.565 141.158C454.745 136.57 455.128 130.391 451.434 126.697C444.165 119.428 430.628 129.766 434.727 138.988C436.287 142.498 438.983 145.097 440.93 148.407C441.711 149.735 442.148 151.174 443.164 152.415C444.137 153.605 445.346 155.086 445.346 156.563C445.346 157.811 444.974 159.429 445.857 160.532C447.076 162.056 446.642 161.272 448.447 161.272C449.688 161.272 451.518 160.286 452.519 159.486C453.233 158.914 453.617 160.567 453.617 158.975C453.617 157.608 453.177 158.745 454.076 158.745" stroke="#00ADB5" stroke-opacity="0.5" stroke-linecap="round" stroke-linejoin="round"/>
<path d="M454.306 158.918C454.275 159.118 454.242 160.468 453.703 160.468C453.412 160.468 453.279 160.292 453.014 160.44C452.702 160.613 452.409 161.021 452.111 161.26C451.848 161.47 451.067 161.444 450.917 161.706C450.672 162.135 450.175 162.37 449.711 162.421C449.109 162.488 448.887 162.79 448.246 162.648C448.051 162.604 448.031 162.479 447.848 162.479C447.565 162.479 447.442 162.614 447.229 162.377C446.992 162.114 446.606 161.991 446.492 161.592C446.337 161.049 445.768 160.764 446.61 161.1" stroke="#00ADB5" stroke-opacity="0.5" stroke-linecap="round" stroke-linejoin="round"/>
<path d="M443.221 136.174C444.249 136.179 445.098 136.246 445.448 137.335C445.686 138.077 445.691 138.805 445.691 139.575C445.691 140.324 445.231 140.926 445.231 141.63C445.231 142.561 445.976 142.409 446.606 142.693C447.202 142.961 447.633 143.184 447.956 143.784C448.276 144.377 448.034 145.525 447.991 146.171C447.954 146.726 447.69 147.906 448.074 148.375C448.283 148.63 449.423 149.024 448.677 148.465" stroke="#00ADB5" stroke-opacity="0.5" stroke-linecap="round" stroke-linejoin="round"/>
<path d="M434.548 146.569C433.725 147.116 432.887 147.574 431.967 147.919C431.581 148.064 431.073 148.322 431.16 147.718" stroke="#00ADB5" stroke-opacity="0.5" stroke-linecap="round" stroke-linejoin="round"/>
<path d="M431.562 138.643C430.104 138.995 428.655 139.39 427.21 139.779C426.969 139.844 427.521 139.236 427.542 139.218" stroke="#00ADB5" stroke-opacity="0.5" stroke-linecap="round" stroke-linejoin="round"/>
<path d="M431.16 131.12C429.65 130.9 428.144 130.628 426.642 130.36C425.95 130.237 425.657 130.328 426.048 129.741" stroke="#00ADB5" stroke-opacity="0.5" stroke-linecap="round" stroke-linejoin="round"/>
<path d="M439.315 123.136C438.122 122.927 437.088 122.725 436.01 122.185C435.505 121.933 435.019 121.63 434.491 121.426C433.863 121.184 433.85 121.258 434.548 120.839" stroke="#00ADB5" stroke-opacity="0.5" stroke-linecap="round" stroke-linejoin="round"/>
<path d="M169.734 247.189C171.644 255.791 173.794 264.412 175.057 273.144C175.763 278.022 174.213 270.983 174.021 269.988C173.604 267.834 173.126 265.926 173.126 263.723C173.126 259.29 173.007 254.807 172.678 250.369C172.448 247.262 168.632 238.011 173.455 245.729C178.374 253.598 181.846 262.299 185.185 270.883C185.645 272.066 186.282 273.187 186.786 274.322C187.062 274.942 181.899 269.896 179.909 268.811" stroke="#00ADB5" stroke-opacity="0.5" stroke-width="2" stroke-linecap="round" stroke-linejoin="round"/>
<path d="M166.766 266.267C172.278 264.067 184.431 259.919 187.964 253.737C189.444 251.147 189.156 252.344 184.996 253.124" stroke="#00ADB5" stroke-opacity="0.5" stroke-width="2" stroke-linecap="round" stroke-linejoin="round"/>
<path d="M183.301 237.438C187.554 245.858 190.635 254.824 191.803 264.171C191.911 265.037 192.112 265.987 192.722 266.597C192.835 266.71 190.682 262.679 190.084 261.603" stroke="#00ADB5" stroke-opacity="0.5" stroke-width="2" stroke-linecap="round" stroke-linejoin="round"/>
<path d="M183.301 237.014C186.599 238.99 198.713 246.287 190.814 250.934C190.121 251.342 189.308 251.718 188.812 252.371C187.762 253.752 187.636 254.157 188.388 252.276" stroke="#00ADB5" stroke-opacity="0.5" stroke-width="2" stroke-linecap="round" stroke-linejoin="round"/>
<path d="M194.323 232.775C195.728 242.293 198.139 252.752 198.139 262.451C198.139 264.592 197.781 260.627 197.291 259.484" stroke="#00ADB5" stroke-opacity="0.5" stroke-width="2" stroke-linecap="round" stroke-linejoin="round"/>
<path d="M204.074 249.733C206.402 256.671 207.598 260.76 200.777 262.781C198.446 263.472 201.262 260.086 201.86 259.672C203.901 258.259 205.933 253.711 203.65 251.428C202.742 250.52 200.568 251.667 199.929 250.581C198.986 248.979 201.098 245.945 202.378 245.163C206.059 242.914 205.596 246.084 204.074 245.069" stroke="#00ADB5" stroke-opacity="0.5" stroke-width="2" stroke-linecap="round" stroke-linejoin="round"/>
<path d="M331.425 120.985C332.831 128.379 338.616 149.97 335.25 143.238C334.888 142.513 334.585 141.898 334.555 141.075C334.442 138.03 334.215 134.847 333.164 131.957C332.285 129.54 332.469 127.034 332.469 124.462C332.469 123.947 331.593 119.892 331.677 119.865C332.562 119.57 336.213 124.006 336.873 124.771C340.211 128.639 343.586 133.084 345.971 137.617C347.199 139.95 347.569 140.786 344.638 141.152" stroke="#00ADB5" stroke-opacity="0.5" stroke-width="2" stroke-linecap="round" stroke-linejoin="round"/>
<path d="M331.078 135.936C334.341 134.281 337.449 132.958 340.814 131.764" stroke="#00ADB5" stroke-opacity="0.5" stroke-width="2" stroke-linecap="round" stroke-linejoin="round"/>
<path d="M340.466 121.333C343.807 126.337 346.989 131.663 350.878 136.284C351.433 136.943 352.597 138.14 352.597 136.593C352.597 134.482 351.428 132.3 350.897 130.296C350.049 127.09 349.259 123.869 348.541 120.637C347.847 117.517 348.336 118.682 349.507 121.024C351.447 124.903 353.489 128.437 356.19 131.88C358.01 134.199 358.199 132.908 358.199 130.875C358.199 127.184 356.397 124.148 355.07 120.83C353.652 117.286 353.747 112.448 352.134 109.221C351.506 107.966 351.419 111.943 351.245 113.335" stroke="#00ADB5" stroke-opacity="0.5" stroke-width="2" stroke-linecap="round" stroke-linejoin="round"/>
<path d="M359.242 108.815C359.331 109.224 360.626 119.347 362.913 118.203C363.915 117.702 364.16 116.169 365.192 115.653C366.864 114.818 368.671 116.298 369.326 117.74C371.059 121.552 369.064 125.967 365.926 128.287C361.579 131.5 363.067 125.716 363.067 124.114" stroke="#00ADB5" stroke-opacity="0.5" stroke-width="2" stroke-linecap="round" stroke-linejoin="round"/>
<path d="M361.329 108.12C360.703 109.83 359.565 117.768 359.223 114.688C359.012 112.786 359.387 111.34 359.59 109.511C360.072 105.172 363.393 108.662 362.024 106.381" stroke="#00ADB5" stroke-opacity="0.5" stroke-width="2" stroke-linecap="round" stroke-linejoin="round"/>
<path d="M338.14 336.508C338.024 336.295 333.008 327.657 333.442 327.408C334.044 327.064 335.167 327.399 335.876 327.133C337.969 326.348 339.655 324.728 341.378 323.388C343.19 321.978 345.672 333.036 346.224 335.365C346.891 338.183 348.629 341.929 345.377 343.555C342.446 345.021 338.589 344.578 335.389 344.507C330.168 344.391 326.56 335.821 325.951 331.556C325.507 328.451 321.207 318.483 325.824 316.489C327.06 315.955 329.16 316.32 330.501 316.32C332.419 316.32 334.094 315.177 336.045 315.177C339.149 315.177 340.088 319.055 337.378 314.796" stroke="#00ADB5" stroke-opacity="0.5" stroke-width="2" stroke-linecap="round" stroke-linejoin="round"/>
<path d="M346.901 317.843C347.442 319.815 349.183 330.762 353.757 327.959C354.628 327.425 355.261 326.131 355.577 325.208C356.42 322.742 356.597 320.683 354.709 318.796C353.295 317.381 350.564 314.494 348.509 314.415C343.413 314.219 347.909 319.927 347.282 318.986" stroke="#00ADB5" stroke-opacity="0.5" stroke-width="2" stroke-linecap="round" stroke-linejoin="round"/>
<path d="M347.663 300.321C351.425 306.27 357.102 312.812 359.386 319.663C359.677 320.537 359.688 321.131 360.233 321.949C361.055 323.182 361.444 324.972 362.222 323.091C363.349 320.368 365.917 317.951 367.936 315.854C370.426 313.268 370.767 314.034 366.327 314.034" stroke="#00ADB5" stroke-opacity="0.5" stroke-width="2" stroke-linecap="round" stroke-linejoin="round"/>
<path d="M373.946 298.417C373.473 299.484 366.297 313.685 373.226 310.458C374.605 309.816 376.011 308.817 375.829 307.178C375.653 305.598 374.334 304.356 373.649 302.988C373.263 302.214 371.717 298.489 372.253 299.559C373.844 302.741 375.98 308.408 378.347 310.775C381.105 313.533 382.757 310.635 380.04 309.082" stroke="#00ADB5" stroke-opacity="0.5" stroke-width="2" stroke-linecap="round" stroke-linejoin="round"/>
<path d="M378.136 299.94C388.738 316.758 375.322 297.888 378.411 294.586C381.4 291.391 384.931 297.527 386.05 299.475C387.999 302.868 389.918 311.671 386.897 302.607" stroke="#00ADB5" stroke-opacity="0.5" stroke-width="2" stroke-linecap="round" stroke-linejoin="round"/>
<path d="M391.468 285.466C391.288 286.101 385.601 302.105 389.859 300.618C391.669 299.986 393.486 298.555 394.451 296.914C395.565 295.02 396.084 292.423 395.277 290.333C394.726 288.908 394.131 287.386 393.372 286.058C391.569 282.904 396.428 292.652 397.88 295.983C400.006 300.86 405.128 317.959 393.055 314.563C387.789 313.082 392.748 304.892 392.229 304.892" stroke="#00ADB5" stroke-opacity="0.5" stroke-width="2" stroke-linecap="round" stroke-linejoin="round"/>
<path d="M241.549 206.765C243.442 206.245 245.056 205.721 246.387 204.223C246.912 203.633 246.983 202.879 247.251 202.164C247.6 201.235 247.166 200.046 246.868 199.154C246.631 198.441 247.93 198.041 248.394 198.011C249.191 197.96 249.801 198.467 250.567 198.512C251.488 198.566 252.47 198.861 253.109 199.58C253.542 200.067 254.123 200.182 254.602 200.605C255.057 201.006 255.416 201.706 255.745 202.22C256.697 203.707 256.966 205.442 257.243 207.143C257.375 207.959 257.456 208.846 257.318 209.67C257.154 210.654 257.329 211.6 256.94 212.543C256.672 213.194 256.243 214.057 255.632 214.442C255.005 214.837 254.422 214.979 254.262 215.798C253.927 217.508 254.786 219.183 254.455 220.909C254.162 222.442 252.136 222.676 250.884 222.922C250.019 223.091 248.448 223.356 247.615 222.903C246.063 222.059 244.939 221.005 243.788 219.662C242.769 218.472 242.383 216.733 242.248 215.212C242.111 213.659 242.109 211.973 242.144 210.403C242.167 209.361 242.471 208.314 242.569 207.275C242.65 206.425 242.92 206.357 242.484 207.445" stroke="#00ADB5" stroke-opacity="0.5" stroke-linecap="round" stroke-linejoin="round"/>
<path d="M252.519 199.027C253.158 197.378 253.861 195.73 254.352 194.029C254.572 193.265 254.625 192.455 254.9 191.709C255.219 190.842 255.377 189.862 255.514 188.955C255.612 188.305 255.66 187.154 256.255 186.744C256.69 186.445 256.938 185.762 257.403 185.402C258.001 184.941 258.851 184.512 259.274 183.895C259.69 183.29 260.134 182.04 259.784 181.34C259.59 180.951 259.617 180.532 259.425 180.149C259.176 179.651 258.952 179.247 258.764 178.708C258.599 178.237 258.08 177.295 258.684 176.96C260.159 176.141 260.262 177.431 260.72 178.609C260.956 179.218 260.992 179.961 261.211 180.593C261.361 181.026 261.627 180.713 261.83 180.962C262.136 181.336 262.151 181.804 262.383 182.209C262.729 182.815 262.322 184.044 262.146 184.637C261.821 185.735 261.486 186.729 261.003 187.783C259.76 190.499 257.734 192.786 256.345 195.418C255.816 196.419 255.393 197.428 255.136 198.536C254.989 199.165 254.559 199.765 254.559 200.43C254.559 201.037 254.409 201.348 254.729 200.387" stroke="#00ADB5" stroke-opacity="0.5" stroke-linecap="round" stroke-linejoin="round"/>
<path d="M259.151 178.534C258.068 178.7 256.887 178.763 255.92 179.247C255.787 179.313 255.993 179.14 256.09 179.129C257.386 178.976 258.802 177.82 259.983 177.258C260.861 176.84 262.062 175.898 263.063 175.898C263.353 175.898 262.099 176.705 261.957 176.833" stroke="#00ADB5" stroke-opacity="0.5" stroke-linecap="round" stroke-linejoin="round"/>
<path d="M258.046 180.404C259.251 179.704 261.35 178.944 262.231 177.768C262.317 177.654 262.38 177.5 262.505 177.428C262.943 177.178 262.169 177.457 262.042 177.513" stroke="#00ADB5" stroke-opacity="0.5" stroke-linecap="round" stroke-linejoin="round"/>
<path d="M258.896 181.51C260.342 180.956 262.986 180.464 263.781 178.874C263.896 178.644 263.641 178.704 263.488 178.704" stroke="#00ADB5" stroke-opacity="0.5" stroke-linecap="round" stroke-linejoin="round"/>
<path d="M260.427 181.34C260.334 183.29 260.354 185.273 259.241 186.943C258.698 187.757 258.322 188.299 258.131 189.253C257.927 190.272 257.703 191.123 257.238 192.054C256.779 192.972 256.24 193.724 255.788 194.605C255.553 195.062 254.976 195.502 255.088 196.051C255.145 196.328 255.008 196.576 254.918 196.835C254.653 197.603 254.156 198.279 253.69 198.942C253.374 199.392 253.378 200.2 253.794 199.367" stroke="#00ADB5" stroke-opacity="0.5" stroke-linecap="round" stroke-linejoin="round"/>
<path d="M253.539 197.071C254.306 197.238 255.473 197.751 256.26 197.751C256.274 197.751 255.591 196.927 255.495 196.816" stroke="#00ADB5" stroke-opacity="0.5" stroke-linecap="round" stroke-linejoin="round"/>
<path d="M254.049 193.585C255.134 194.048 256.221 194.507 257.299 194.988C257.552 195.1 257.537 195.117 257.45 195.03C257.264 194.843 257.105 194.641 256.94 194.435" stroke="#00ADB5" stroke-opacity="0.5" stroke-linecap="round" stroke-linejoin="round"/>
<path d="M255.07 191.289C256.377 191.695 257.682 192.133 259.005 192.489C259.153 192.529 259.36 192.608 259.217 192.46C258.932 192.165 258.604 191.905 258.301 191.629" stroke="#00ADB5" stroke-opacity="0.5" stroke-linecap="round" stroke-linejoin="round"/>
<path d="M255.75 188.398C257.238 189.125 258.72 189.909 260.247 190.557C260.498 190.663 260.582 190.741 260.531 190.542C260.461 190.273 260.357 190.018 260.257 189.758" stroke="#00ADB5" stroke-opacity="0.5" stroke-linecap="round" stroke-linejoin="round"/>
<path d="M257.62 186.357C257.756 186.422 261.873 188.655 261.532 187.802" stroke="#00ADB5" stroke-opacity="0.5" stroke-linecap="round" stroke-linejoin="round"/>
<path d="M258.471 184.996C259.713 185.288 260.969 185.554 262.212 185.762" stroke="#00ADB5" stroke-opacity="0.5" stroke-linecap="round" stroke-linejoin="round"/>
<path d="M259.832 183.636C260.399 183.663 260.965 183.691 261.532 183.721" stroke="#00ADB5" stroke-opacity="0.5" stroke-linecap="round" stroke-linejoin="round"/>
<path d="M248.607 209.146C248.016 209.381 244.377 210.286 244.355 211.291C244.347 211.684 244.355 212.077 244.402 212.467C244.549 213.678 245.392 214.312 246.424 214.891C247.737 215.626 249.151 215.649 250.582 215.231C251.942 214.833 252.826 213.329 252.282 212.037C252.169 211.769 252.56 211.715 252.306 211.404C252.059 211.102 251.896 211.277 251.498 211.357" stroke="#00ADB5" stroke-opacity="0.5" stroke-linecap="round" stroke-linejoin="round"/>
<path d="M246.821 212.292C247.498 210.581 248.342 208.87 248.735 207.063C248.837 206.589 248.964 206.191 249.221 205.764C249.763 204.86 250.241 203.895 250.563 202.891C250.868 201.938 250.888 200.998 251.29 200.066C251.434 199.734 252.291 198.737 251.923 199.197" stroke="#00ADB5" stroke-opacity="0.5" stroke-linecap="round" stroke-linejoin="round"/>
<path d="M253.539 200.047C253.223 202.017 252.749 203.902 252.415 205.849C252.229 206.928 251.923 207.83 251.923 208.967C251.923 209.779 252.213 210.457 252.027 211.272C251.813 212.21 251.62 211.748 251.243 211.102" stroke="#00ADB5" stroke-opacity="0.5" stroke-linecap="round" stroke-linejoin="round"/>
<path d="M252.689 200.047C252.097 201.277 250.818 203.299 250.818 204.852C250.818 205.735 250.875 206.672 250.813 207.568C250.74 208.634 249.908 210.015 249.41 210.932C249.245 211.236 249.03 211.471 248.928 211.801C248.801 212.213 248.892 212.238 248.607 211.782" stroke="#00ADB5" stroke-opacity="0.5" stroke-linecap="round" stroke-linejoin="round"/>
<path d="M246.566 210.507C248.014 211.543 250.571 213.657 252.349 211.829C252.626 211.544 253.026 210.936 253.18 210.573C253.39 210.076 252.71 210.498 252.263 210.592" stroke="#00ADB5" stroke-opacity="0.5" stroke-linecap="round" stroke-linejoin="round"/>
<path d="M248.267 208.976C249.093 208.95 250.762 209.173 251.564 208.759C251.591 208.745 251.503 208.768 251.479 208.787C251.4 208.85 251.236 208.747 251.158 208.721" stroke="#00ADB5" stroke-opacity="0.5" stroke-linecap="round" stroke-linejoin="round"/>
<path d="M249.202 205.83C249.808 205.99 252.001 206.924 252.093 205.915" stroke="#00ADB5" stroke-opacity="0.5" stroke-linecap="round" stroke-linejoin="round"/>
<path d="M250.223 203.279C250.974 203.769 254.023 206.04 253.539 203.619" stroke="#00ADB5" stroke-opacity="0.5" stroke-linecap="round" stroke-linejoin="round"/>
<path d="M251.073 202.088C251.838 202.287 252.603 202.485 253.369 202.683" stroke="#00ADB5" stroke-opacity="0.5" stroke-linecap="round" stroke-linejoin="round"/>
<path d="M254.814 202.088C255.761 202.98 257.65 205.054 257.706 206.614C257.751 207.886 257.706 209.116 257.706 210.403C257.706 211.339 257.884 212.338 257.791 213.228C257.668 214.396 255.874 214.411 256.303 215.783C256.446 216.242 256.321 216.513 256.723 216.842C257.07 217.125 257.322 217.455 257.45 217.905C257.751 218.955 257.153 219.903 256.43 220.626C255.978 221.078 255.391 221.987 254.857 222.284C254.593 222.43 254.054 222.326 253.751 222.326C253.471 222.326 252.904 222.509 252.651 222.624C252.278 222.794 251.802 222.494 251.328 222.667" stroke="#00ADB5" stroke-opacity="0.5" stroke-linecap="round" stroke-linejoin="round"/>
<path d="M241.549 207.02C241.892 208.159 242.147 209.106 242.721 210.081C242.956 210.482 242.924 210.846 242.82 211.314C242.699 211.859 242.301 213.136 242.612 213.695C243.09 214.555 243.08 215.465 243.08 216.417C243.08 217.334 244.513 217.732 244.984 218.202C245.682 218.901 245.379 219.792 246.528 220.097C246.78 220.163 247.173 220.167 247.369 220.328C247.518 220.45 247.693 220.755 247.889 220.791C248.294 220.865 248.836 220.784 249.202 220.947C249.508 221.083 249.731 221.279 250.01 221.434C250.317 221.604 250.738 221.412 251.073 221.58C252.216 222.152 251.706 221.608 250.903 220.966" stroke="#00ADB5" stroke-opacity="0.5" stroke-linecap="round" stroke-linejoin="round"/>
<path d="M156.926 164.311C154.654 167.219 144.898 178.853 153.211 181.486C155.791 182.303 159.148 180.424 161.929 180.696C165.861 181.079 168.072 184.422 169.039 187.893C170.153 191.89 164.007 198.998 166.962 201.147C172.022 204.827 179.31 198.604 183.492 203.546C185.862 206.347 183.37 210.417 184.838 203.809" stroke="#00ADB5" stroke-opacity="0.5" stroke-linecap="round" stroke-linejoin="round"/>
<path d="M271.041 119.02C273.231 121.922 278.443 128.459 280.404 132.186C282.072 135.359 279.969 135.232 278.18 133.971C276.04 132.464 276.341 129.258 276.951 127.037C279.013 119.541 292.356 112.649 293.862 124.17C294.391 128.217 290.774 135.021 285.846 133.415C279.339 131.295 279.754 121.365 284.675 117.675C289.709 113.899 297.958 118.237 297.958 124.404C297.958 131.25 289.821 133.37 286.665 127.33C283.796 121.84 288.879 116.097 294.33 115.275C296.335 114.973 301.514 117.289 297.9 118.494" stroke="#00ADB5" stroke-opacity="0.5" stroke-linecap="round" stroke-linejoin="round"/>
<path d="M381.108 171.158C377.698 174.546 366.921 182.447 375.988 185.523C381.264 187.313 386.148 184.379 389.418 180.374C393.025 175.955 393.637 168.966 387.896 166.096C383.431 163.864 379.584 160.278 375.842 165.891" stroke="#00ADB5" stroke-opacity="0.5" stroke-linecap="round" stroke-linejoin="round"/>
<path d="M440.619 271.746C439.532 272.946 422.179 294.357 430.905 283.449C432.901 280.954 434.734 278.5 437.459 276.749C439.138 275.669 440.756 275.003 442.199 273.56C443.775 271.983 441.54 272.087 441.175 275.374C440.857 278.236 441.1 290.733 440.619 290.705C437.366 290.514 435.233 287.312 432.222 286.258C430.609 285.693 425.826 286.506 427.16 285.438C430.422 282.829 440.413 275.346 437.459 278.3C435.221 280.537 430.622 288.947 432.193 286.199C433.309 284.245 436.328 277.879 435.879 278.943C434.953 281.136 433.342 284.893 433.48 287.311C433.611 289.606 438.17 283.958 438.454 283.39C440.567 279.164 436.195 288.668 437.752 286.404C439.154 284.364 443.894 279.179 440.502 284.268C439.759 285.382 444.016 280.244 443.252 281.342C443.03 281.661 441.101 284.898 442.228 283.771C446.266 279.733 440.316 283.931 439.565 282.805" stroke="#00ADB5" stroke-opacity="0.5" stroke-linecap="round" stroke-linejoin="round"/>
<path d="M405.334 359.168C407.177 356.543 417.712 344.961 409.05 344.451C407.586 344.365 404.567 343.89 403.344 344.89C400.437 347.269 401.698 353.685 405.627 354.399C410.837 355.346 415.719 348.222 410.074 345.475C404.176 342.606 390.254 354.131 396.264 358.875C408.097 368.217 418.797 341.07 403.491 344.978C389.607 348.523 401.838 362.823 408.143 353.609C414.893 343.744 394.079 343.659 397.756 354.692C399.57 360.133 405.523 357.507 406.592 353.112C408.159 346.668 401.751 349.329 401.648 353.785C401.536 358.56 408.894 349.92 404.486 350.303C401.3 350.58 400.985 354.955 398.488 354.955" stroke="#00ADB5" stroke-opacity="0.5" stroke-linecap="round" stroke-linejoin="round"/>
<path d="M195.732 309.664C196.795 314.489 198.891 329.088 198.891 324.146C198.891 320.735 196.286 317.552 195.761 314.14C195.577 312.948 195.956 309.422 194.942 308.611C194.248 308.056 200.806 313.16 202.549 314.14C205.729 315.929 208.009 319.271 210.77 315.72C212.096 314.016 215.996 313.78 216.534 313.35C220.433 310.231 220.076 305.575 220.981 301.501C221.304 300.048 220.484 306.462 220.484 308.347C220.484 310.759 220.919 313.953 221.566 316.218C222.485 319.434 222.117 310.357 221.244 308.611C219.826 305.774 219.957 303.257 219.957 300.184C219.957 298.971 228.761 314.179 227.213 315.34C226.566 315.825 217.945 313.447 215.334 314.287C213.085 315.01 211.031 315.853 208.898 316.92C208.314 317.211 207.352 318.273 207.727 317.973C209.064 316.903 213.155 313.979 211.531 314.521C209.299 315.265 207.108 317.424 205.094 318.617C201.298 320.866 200.07 320.552 198.482 324.41C198.253 324.966 201.086 324.895 201.642 325.053C205.627 326.192 208.132 323.088 211.648 321.66C216.186 319.816 221.403 316.03 226.277 315.457C229.955 315.024 224.362 313.734 224.17 313.35" stroke="#00ADB5" stroke-opacity="0.5" stroke-linecap="round" stroke-linejoin="round"/>
<path d="M396.908 106.908C406.833 103.726 422.908 100.067 431.783 92.8056C433.393 91.488 435.887 90.2249 435.323 87.6855C433.203 78.1454 428.59 75.908 419.495 76.9186C414.45 77.4792 409.607 82.1327 404.924 84.0283C400.103 85.9798 395.279 88.5438 390.881 91.3427C386.429 94.1755 389.008 95.5788 389.008 100.471C389.008 103.161 390.615 106.908 393.484 106.908C394.792 106.908 398.541 105.855 394.83 105.855C391.918 105.855 387.397 106.296 384.795 104.918C382.808 103.866 386.73 101.795 387.662 101.671C390.991 101.227 383.848 104.483 383.127 104.714C381.645 105.188 388.476 100.011 384.678 101.232C380.561 102.555 386.671 99.0064 387.955 98.3646C389.404 97.6401 388.14 98.7871 388.481 98.189C389.028 97.2321 392.193 93.7164 389.33 96.5798C388.371 97.5385 391.494 94.9448 392.548 94.0929C394.535 92.4886 392.014 94.9227 391.524 95.3218C389.265 97.1605 388.736 95.6768 386.901 96.4921C386.135 96.8329 384.268 97.9632 384.268 96.6384C384.268 94.3526 392.333 93.3114 393.806 93.2445C402.827 92.8344 409.14 88.8553 417.447 86.7785C421.444 85.7791 425.813 84.3398 429.559 82.5654C432.338 81.2494 437.903 77.1292 440.853 77.9719C442.012 78.3031 424.129 88.7084 429.267 85.3156C433.517 82.5091 438.39 80.5383 432.017 85.813C426.911 90.0386 435.893 85.1166 436.61 85.4034C437.898 85.9185 428.681 91.183 435.703 87.9488C438.389 86.7119 440.619 86.6508 440.619 83.7357C440.619 79.7787 441.701 75.0887 436.669 76.9186C430.862 79.0303 426.201 83.5438 420.197 85.3156C416.058 86.537 412.025 88.0795 407.967 89.5287C403.258 91.2104 394.735 93.0908 391.378 97.1943C389.589 99.3811 386.402 107.904 392.987 104.216C399.028 100.833 399.989 93.9889 403.227 88.5925C404.836 85.9121 400.425 94.2537 399.775 97.3113C399.028 100.828 402.337 104.875 406.124 104.216C410.278 103.494 414.647 97.7573 416.13 94.2685C423.257 77.4999 410.33 93.7638 413.994 97.4283C417.883 101.317 423.809 91.0151 424.585 88.4755C425.52 85.4154 426.07 81.6434 427.189 78.7326C428.641 74.9575 419.371 79.2093 418.5 79.6396C413.678 82.0227 410.311 85.2016 407.031 89.4117C405.843 90.9356 401.077 98.1087 404.339 99.7397C408.711 101.925 414.077 95.1316 414.199 91.606C414.611 79.663 404.777 85.7839 398.839 90.465C395.169 93.3575 398.357 99.1387 399.014 98.4816" stroke="#00ADB5" stroke-opacity="0.5" stroke-linecap="round" stroke-linejoin="round"/>
<path d="M263.668 392.346C263.439 392.529 254.774 400.003 254.774 397.876C254.774 396.63 255.733 395.296 256.588 394.482C258.278 392.872 264.954 391.634 263.346 395.565C262.268 398.201 257.86 402.087 256.617 397.115C256.101 395.051 259.644 390.908 261.796 392.668C264.168 394.609 259.068 397.082 257.465 396.208C254.604 394.647 258.04 389.09 260.801 390.24C263.688 391.443 259.717 394.731 258.402 395.389C255.326 396.927 255.756 394.441 254.189 392.873" stroke="#00ADB5" stroke-opacity="0.5" stroke-linecap="round" stroke-linejoin="round"/>
<path d="M120.949 391.82C123.985 396.822 129.767 402.013 123.875 406.566C122.355 407.74 113.39 412.435 113.927 406.975C114.581 400.326 124.49 400.178 125.103 394.219C125.71 388.325 111.635 390.546 108.427 386.553C106.417 384.052 104.796 378.509 105.267 375.318C105.45 374.075 108.602 371.663 108.28 373.914C107.692 378.034 94.4067 388.588 102.282 392.054C107.563 394.377 108.925 388.494 112.815 387.08C120.828 384.166 108.836 405.777 108.836 400.246" stroke="#00ADB5" stroke-opacity="0.5" stroke-linecap="round" stroke-linejoin="round"/>
<path d="M379.002 460.283C376.563 466.054 371.629 483.84 371.629 477.574C371.629 476.597 371.818 475.825 372.156 474.912C373.741 470.621 375.577 466.628 378.241 462.857C379.696 460.799 381.429 454.772 383.508 459.346C384.478 461.48 387.253 467.422 386.082 469.762C384.614 472.7 380.054 474.385 377.013 474.502C376.22 474.532 367.913 475.624 370.605 473.156C373.769 470.256 376.83 461.436 381.606 460.839C382.343 460.746 383.884 461.239 384.532 461.599C385.673 462.233 384.283 463.378 383.742 464.262C383.093 465.322 377.959 472.483 377.949 472.161C377.803 467.362 382.727 460.395 385.38 456.772C386.332 455.473 381.269 464.291 380.114 466.281C379.22 467.82 380.386 471.092 376.369 470.289" stroke="#00ADB5" stroke-opacity="0.5" stroke-linecap="round" stroke-linejoin="round"/>
<path d="M215.744 36.8648C213.394 46.0569 211.301 54.8151 210.448 64.1915C210.363 65.1294 209.77 65.7358 210.36 66.4736C211.239 67.5717 213.562 60.5897 214.457 58.7203C217.29 52.7949 220.484 50.4566 220.484 43.1844C220.484 42.1351 220.484 36.0956 220.484 40.0831C220.484 43.4685 221.125 46.8144 220.893 50.2063C220.718 52.77 218.257 59.6889 220.074 57.8718C222.879 55.0672 220.632 41.0049 216.241 40.639C210.248 40.1396 207.359 53.129 206.674 57.1696C205.877 61.8708 209.192 63.839 212.847 60.1832C217.837 55.1934 218.919 44.9347 214.632 39.0884C208.742 31.0564 204.877 45.5488 204.392 49.0945C203.295 57.1151 207.775 59.6853 213.081 53.9806C215.033 51.8824 218.968 48.2543 218.143 44.9984C217.045 40.6676 210.644 44.8731 209.366 46.7539C207.553 49.4209 207.577 56.064 210.507 57.9596C213.242 59.7295 215.904 52.3957 215.598 50.5574C214.298 42.7611 199.602 55.1374 206.908 59.5688C213.267 63.4256 217.482 46.1709 209.658 48.3046C207.48 48.8987 202.305 54.7705 206.791 54.7705" stroke="#00ADB5" stroke-opacity="0.5" stroke-linecap="round" stroke-linejoin="round"/>
<path d="M76.1844 186.957C73.8179 193.662 72.1142 197.942 66.1198 201.703C64.6147 202.647 62.6257 204.318 62.3163 206.209C61.6552 210.249 68.0278 214.701 71.6495 213.494C79.2807 210.95 67.733 203.397 66.5001 201.205C64.3535 197.389 72.1119 190.534 75.687 192.545C78.4699 194.111 79.7036 199.566 78.0569 202.229C75.6581 206.11 70.5021 206.263 66.4709 205.653C63.2604 205.166 56.8296 205.828 58.7176 210.597C61.08 216.565 72.2299 213.437 73.9023 208.374C75.5306 203.444 66.7155 201.586 68.6067 196.963C69.9057 193.788 74.0073 189.824 77.6473 189.824C82.0074 189.824 77.6532 197.969 77.0036 199.245C74.1353 204.883 69.7467 205.445 64.1888 206.969C53.7281 209.837 64.9973 210.241 65.6516 206.969" stroke="#00ADB5" stroke-opacity="0.5" stroke-linecap="round" stroke-linejoin="round"/>
<path d="M63.545 259.106C62.427 263.316 59.1217 270.5 59.4489 275.081C59.6022 277.228 60.1885 270.84 60.4436 268.703C60.9297 264.632 61.4858 260.034 63.662 256.473C64.0482 255.841 72.9802 266.991 73.7852 268.82C75.9395 273.716 73.2423 272.784 69.8646 274.379C67.9874 275.266 55.1772 279.787 55.1772 278.592C55.1772 277.34 57.5923 274.794 58.1615 273.735C59.9434 270.42 61.8551 266.258 62.6087 262.559C64.2182 254.658 63.0183 270.917 63.0183 272.155C63.0183 272.907 63.3104 277.305 61.5554 277.305C59.359 277.305 63.0403 273.171 63.779 271.102C64.5624 268.909 67.6807 262.444 66.9096 260.131C65.8175 256.854 65.2711 266.89 65.1541 270.341C65.0748 272.681 63.9428 276.586 65.7685 272.799C66.3503 271.592 68.2283 266.645 68.1969 267.006C67.9322 270.051 66.7048 273.19 66.7048 276.252C66.7048 279.385 68.3578 269.298 71.2105 268.001C71.9198 267.678 70.9179 273.625 70.9179 274.496C70.9179 276.081 72.4393 268.405 72.4393 269.99C72.4393 270.432 71.8081 273.103 71.3275 272.272C69.358 268.871 67.8762 266.768 63.8375 265.543C61.9982 264.985 56.1516 265.368 58.0738 265.368C59.3372 265.368 61.3215 260.971 62.7257 262.12C64.5888 263.644 62.0319 268.51 61.4384 270.166C60.4666 272.877 59.8581 269.064 62.2576 269.347C64.7578 269.641 62.207 278.873 63.6035 276.778C64.2516 275.806 66.2148 271.01 66.1489 271.57C64.8741 282.406 65.1394 268.608 67.2314 271.746" stroke="#00ADB5" stroke-opacity="0.5" stroke-linecap="round" stroke-linejoin="round"/>
<path d="M324.232 115.861C330.932 115.53 337.403 118.007 336.344 110.068C335.82 106.134 333.615 99.7021 334.764 95.8484C335.985 91.7569 343.476 82.5299 337.076 79.6396C331.709 77.2159 324.695 84.0698 323.705 88.7095C323.293 90.6392 323.381 96.6676 326.572 96.6676C328.984 96.6676 330.524 94.2999 332.629 96.4043C335.38 99.1553 335.871 101.665 333.916 105.123C329.224 113.424 310.661 104.152 320.662 94.1514C322.033 92.7806 327.455 86.4939 330.025 88.2999C333.56 90.7844 333.082 97.2529 331.254 100.471C329.43 103.68 322.738 107.041 320.106 102.929C318.806 100.897 319.428 99.5348 321.598 99.5348" stroke="#00ADB5" stroke-opacity="0.5" stroke-linecap="round" stroke-linejoin="round"/>
<path d="M380.337 165.146C380.955 164.896 400.221 155.385 399.325 160.611C398.844 163.415 399.165 166.031 399.559 168.832C399.71 169.904 402.321 178.253 399.705 178.253C394.831 178.253 390.073 175.805 385.193 176.732C383.17 177.116 379.141 178.502 378.991 175.269C378.878 172.844 376.864 161.945 381.653 163.01C385.601 163.887 385.772 160.754 382.97 167.72C382.572 168.709 379.957 176.14 380.395 175.795C384.776 172.353 387.179 165.735 391.191 161.722C393.697 159.217 389.402 169.273 388.88 170.529C386.214 176.947 393.028 165.09 393.795 163.917C397.163 158.766 394.606 167.987 394.088 169.505C392.53 174.068 397.319 165.548 399.237 164.414C405.593 160.658 399.588 173.63 398.242 170.939" stroke="#00ADB5" stroke-opacity="0.5" stroke-linecap="round" stroke-linejoin="round"/>
<path d="M328.445 264.373C328.747 272.114 328.612 276.337 335.174 271.453C337.036 270.068 336.245 273.346 335.788 274.145C335.026 275.48 330.555 282.189 335.057 279.616C336.197 278.965 339.27 277.665 339.27 280.172C339.27 280.568 337.892 285.412 339.241 284.063C341.451 281.853 341.491 273.521 341.611 270.283C341.637 269.576 341.946 268.754 341.318 269.113C338.09 270.957 336.557 280.615 334.881 284.385C333.435 287.64 329.264 283.805 326.865 282.279C322.318 279.385 325.177 281.44 325.285 281.225" stroke="#00ADB5" stroke-opacity="0.5" stroke-linecap="round" stroke-linejoin="round"/>
<path d="M292.107 333.363C292.087 333.608 291.469 348.726 291.58 341.379C291.614 339.137 291.549 336.893 291.58 334.65C291.667 328.281 292.804 331.236 295.559 333.86C296.822 335.063 301.457 337.66 300.708 340.092C300.488 340.809 293.048 342.104 291.872 342.55C290.991 342.884 285.787 346.161 285.787 346.002C285.787 342.089 287.165 337.854 287.63 333.948C288.615 325.677 294.338 347.818 294.71 342.228C294.798 340.912 294.74 333.077 294.74 335.031C294.74 336.485 295.793 344.241 295.793 339.156C295.793 338.005 295.793 336.854 295.793 335.703C295.793 335.161 296.089 337.758 296.29 337.254C297.02 335.43 295.793 331.762 295.793 336.23C295.793 341.246 294.387 337.634 291.317 337.634C288.69 337.634 287.186 347.26 288.537 345.007C289.721 343.035 287.389 335.002 288.42 339.127C288.96 341.286 290.257 338.899 291.053 338.103" stroke="#00ADB5" stroke-opacity="0.5" stroke-linecap="round" stroke-linejoin="round"/>
<path fill-rule="evenodd" clip-rule="evenodd" d="M289.611 277.861C287.169 276.97 284.842 275.668 282.72 273.859C266.696 260.208 273.567 239.612 283.264 228.889C292.962 218.167 352.284 222.444 324.299 272.118C324.181 272.189 324.061 272.26 323.939 272.332C320.81 282.288 323.449 290.827 326.615 301.072C327.906 305.251 329.285 309.714 330.396 314.672L300.716 312.546C292.558 301.468 289.466 290.302 289.611 277.861Z" fill="#F5B9AB"/>
<path d="M282.72 273.859L282.266 274.392L282.72 273.859ZM289.611 277.861L289.851 277.204C290.13 277.306 290.314 277.573 290.311 277.869L289.611 277.861ZM283.264 228.889L283.783 229.359L283.264 228.889ZM324.299 272.118L324.909 272.461C324.849 272.566 324.764 272.654 324.66 272.717L324.299 272.118ZM323.939 272.332L323.272 272.122C323.324 271.957 323.435 271.817 323.585 271.729L323.939 272.332ZM326.615 301.072L325.946 301.279L326.615 301.072ZM330.396 314.672L331.078 314.519C331.127 314.735 331.07 314.961 330.926 315.129C330.782 315.296 330.567 315.386 330.346 315.37L330.396 314.672ZM300.716 312.546L300.666 313.243C300.462 313.229 300.274 313.125 300.153 312.96L300.716 312.546ZM283.173 273.327C285.229 275.078 287.481 276.34 289.851 277.204L289.372 278.518C286.856 277.601 284.456 276.257 282.266 274.392L283.173 273.327ZM283.783 229.359C279.016 234.63 274.95 242.328 274.042 250.355C273.138 258.35 275.361 266.671 283.173 273.327L282.266 274.392C274.055 267.396 271.702 258.594 272.652 250.198C273.598 241.833 277.816 233.872 282.746 228.42L283.783 229.359ZM323.69 271.774C330.639 259.439 332.097 250.046 330.378 243.066C328.664 236.105 323.752 231.393 317.613 228.487C311.465 225.577 304.134 224.507 297.738 224.833C294.543 224.996 291.602 225.506 289.176 226.296C286.737 227.09 284.88 228.146 283.783 229.359L282.746 228.42C284.073 226.952 286.191 225.797 288.743 224.966C291.308 224.131 294.374 223.604 297.667 223.436C304.246 223.101 311.815 224.195 318.212 227.223C324.618 230.255 329.895 235.255 331.736 242.732C333.573 250.19 331.952 259.959 324.909 272.461L323.69 271.774ZM323.585 271.729C323.705 271.658 323.823 271.588 323.939 271.518L324.66 272.717C324.54 272.789 324.418 272.862 324.293 272.935L323.585 271.729ZM325.946 301.279C322.79 291.063 320.068 282.316 323.272 272.122L324.606 272.542C321.552 282.259 324.108 290.591 327.283 300.866L325.946 301.279ZM329.713 314.825C328.609 309.898 327.238 305.46 325.946 301.279L327.283 300.866C328.573 305.042 329.96 309.53 331.078 314.519L329.713 314.825ZM300.766 311.848L330.446 313.975L330.346 315.37L300.666 313.243L300.766 311.848ZM290.311 277.869C290.167 290.17 293.218 301.185 301.279 312.131L300.153 312.96C291.899 301.752 288.764 290.435 288.912 277.853L290.311 277.869Z" fill="black"/>
<path d="M329.624 242.12C334.268 248.582 329.266 264.541 325.575 268.532C356.158 251.563 336.796 213.276 327.36 220.258C325.822 206.103 309.58 201.108 298.507 213.08C270.747 190.662 269.286 228.862 279.085 234.671C288.883 240.48 300.771 234.948 306.94 237.944C313.11 240.939 316.917 259.085 318.915 249.014C320.914 238.943 323.818 234.044 329.624 242.12Z" fill="#00ADB5" stroke="black" stroke-width="1.39887"/>
<path d="M357.072 523.989L314.023 520.865L324.383 404.989C324.383 404.989 274.437 286.63 317.312 286.63C377.893 286.63 398.151 379.966 397.396 404.989C396.64 430.012 357.072 523.989 357.072 523.989Z" fill="#EEEEEE" stroke="black" stroke-width="1.39887"/>
<path d="M313.697 525.877L314.299 520.645L357.651 522.387L356.695 530.795C355.15 544.389 341.534 553.155 328.519 548.935C318.72 545.757 312.52 536.111 313.697 525.877Z" fill="#F5B9AB" stroke="black" stroke-width="1.39887" stroke-linejoin="round"/>
<path d="M251.211 440.602C223.208 413.451 258.008 323.516 263.684 312.813C271.947 297.561 296.75 271.028 329.852 286.912C379.909 310.932 357.035 429.78 348.037 470.978L251.211 440.602Z" fill="#EEEEEE" stroke="black" stroke-width="1.39887"/>
<path d="M33.1542 534.857L28.6416 494.065C28.6416 494.065 133.411 460.111 219.758 447.371L338.316 457.612C356.125 499.696 347.342 577.038 215.256 541.481L33.1542 534.857Z" fill="#00ADB5" stroke="black" stroke-width="1.39887"/>
<path fill-rule="evenodd" clip-rule="evenodd" d="M160.109 463.389L141.494 521.285L102.438 519.377L84.617 411.371C81.6647 393.479 95.4687 377.21 113.603 377.21L137.767 377.21L139.436 374.601L147.548 377.21C154.031 377.218 159.901 379.281 164.658 382.714L328.786 435.51C354.168 443.675 365.585 473.144 352.327 496.278L327.219 540.092C314.186 562.835 283.714 568.179 263.72 551.228L160.109 463.389Z" fill="#00ADB5"/>
<path d="M160.109 463.389L160.561 462.855L159.763 462.179L159.443 463.175L160.109 463.389ZM141.494 521.285L141.46 521.983L141.996 522.009L142.16 521.499L141.494 521.285ZM102.438 519.377L101.747 519.49L101.839 520.048L102.403 520.075L102.438 519.377ZM84.617 411.371L85.3071 411.257L84.617 411.371ZM113.603 377.21V377.91V377.21ZM137.767 377.21V377.91H138.15L138.356 377.587L137.767 377.21ZM139.436 374.601L139.651 373.935L139.138 373.77L138.847 374.224L139.436 374.601ZM147.548 377.21L147.334 377.876L147.438 377.91L147.547 377.91L147.548 377.21ZM164.658 382.714L164.249 383.281L164.339 383.346L164.444 383.38L164.658 382.714ZM328.786 435.51L329 434.844L328.786 435.51ZM352.327 496.278L352.934 496.626L352.327 496.278ZM327.219 540.092L326.612 539.744L327.219 540.092ZM263.72 551.228L264.172 550.694L263.72 551.228ZM159.443 463.175L140.828 521.07L142.16 521.499L160.775 463.603L159.443 463.175ZM141.528 520.586L102.472 518.678L102.403 520.075L141.46 521.983L141.528 520.586ZM103.128 519.263L85.3071 411.257L83.9269 411.485L101.747 519.49L103.128 519.263ZM85.3071 411.257C82.4251 393.791 95.9004 377.91 113.603 377.91L113.603 376.511C95.0369 376.511 80.9043 393.166 83.9269 411.485L85.3071 411.257ZM113.603 377.91L137.767 377.91V376.511L113.603 376.511V377.91ZM138.356 377.587L140.026 374.978L138.847 374.224L137.178 376.833L138.356 377.587ZM139.222 375.267L147.334 377.876L147.762 376.544L139.651 373.935L139.222 375.267ZM147.547 377.91C153.879 377.917 159.606 379.931 164.249 383.281L165.068 382.147C160.195 378.631 154.183 376.519 147.549 376.511L147.547 377.91ZM164.444 383.38L328.571 436.176L329 434.844L164.873 382.048L164.444 383.38ZM328.571 436.176C353.53 444.204 364.757 473.182 351.72 495.931L352.934 496.626C366.412 473.106 354.806 443.145 329 434.844L328.571 436.176ZM351.72 495.931L326.612 539.744L327.826 540.44L352.934 496.626L351.72 495.931ZM326.612 539.744C313.796 562.108 283.833 567.363 264.172 550.694L263.267 551.761C283.595 568.995 314.575 563.562 327.826 540.44L326.612 539.744ZM264.172 550.694L160.561 462.855L159.657 463.923L263.267 551.761L264.172 550.694Z" fill="black"/>
<path d="M101.988 518.936L141.926 521.298L145.022 554.825C145.022 554.825 109.986 553.809 88.7321 547.162L103.018 540.14L101.988 518.936Z" fill="#EEEEEE" stroke="black" stroke-width="1.39887" stroke-linejoin="round"/>
<rect width="97.773" height="18.3324" rx="2.00878" transform="matrix(0.258819 0.965926 0.965926 -0.258819 88.5281 274.538)" fill="#EEEEEE" stroke="black" stroke-width="1.39887"/>
<rect width="97.773" height="18.3324" rx="2.00878" transform="matrix(-1 0 0 1 207.723 359.418)" fill="#00ADB5" stroke="black" stroke-width="1.39887"/>
<path d="M176.994 388.615L199.366 351.338L267.96 388.689C264.815 345.582 294.402 283.546 325.471 287.325C379.976 293.953 339.821 428.301 304.116 451.983C268.41 475.664 176.994 388.615 176.994 388.615Z" fill="#EEEEEE"/>
<path d="M347.174 369.777C338.738 405.124 320.933 440.829 304.116 451.983C268.41 475.664 176.994 388.615 176.994 388.615L199.366 351.338L267.96 388.689L291.274 330.2" stroke="black" stroke-width="1.39887"/>
<path d="M195.293 348.51L199.578 351.573L177.038 388.645L170.148 383.734C159.007 375.792 157.94 359.633 167.941 350.296C175.471 343.266 186.913 342.519 195.293 348.51Z" fill="#F5B9AB" stroke="black" stroke-width="1.39887" stroke-linejoin="round"/>
</svg>
